<svg width="160" height="160" viewBox="0 0 160 160" xmlns="http://www.w3.org/2000/svg" role="img" aria-label="PK monogram logo">
  <defs>
    <linearGradient id="bgGradient" x1="0" y1="0" x2="1" y2="1">
      <stop offset="0%" stop-color="#0d1d43"/>
      <stop offset="100%" stop-color="#0a2b5a"/>
    </linearGradient>
    <linearGradient id="glowGradient" x1="0" y1="0" x2="1" y2="1">
      <stop offset="0%" stop-color="#2a8cff"/>
      <stop offset="100%" stop-color="#00b894"/>
    </linearGradient>
  </defs>

  <rect x="10" y="10" width="140" height="140" rx="32" fill="url(#bgGradient)"/>
  <rect x="13" y="13" width="134" height="134" rx="29" fill="none" stroke="url(#glowGradient)" stroke-opacity="0.42" stroke-width="3"/>

  <path d="M40 118V42h30c21 0 33 10 33 28s-12 29-33 29H55v19H40zm15-33h13c13 0 20-5 20-15s-7-14-20-14H55v29z" fill="#f6fbff"/>
  <path d="M101 118V42h15v34l27-34h17l-29 35 31 41h-18l-23-31-5 6v25h-15z" fill="#f6fbff"/>
</svg>
